# xmcd
#
# Track frame offsets: 
#        150
#        10718
#        23322
#        39361
#        54555
#        69300
#        83602
#        96693
#        112418
#        130139
#        141576
#
# Disc length: 2105 seconds
#
# Revision: 0
# Processed by: cddbd v1.5.1PL2 Copyright (c) Steve Scherf et al.
# Submitted via: ExactAudioCopy v0.95b2
#
DISCID=9008370b
DTITLE=Ferlin Husky - The Gospel Way
DYEAR=2004
DGENRE=Country Gospel
TTITLE0=Wings of a Dove
TTITLE1=I Won't Have to Cross Jordan Alone
TTITLE2=Leaning on the Everlasting Arms
TTITLE3=Wayfaring Stranger
TTITLE4=Hello Central, Give Me Heaven
TTITLE5=The Great Speckled Bird
TTITLE6=Angel Band
TTITLE7=Will There Be Any Stars in my Crown
TTITLE8=Beautiful Isle of Somewhere
TTITLE9=Give Me the Roses While I Live
TTITLE10=Lonesome Valley
EXTD=
EXTT0=
EXTT1=
EXTT2=
EXTT3=
EXTT4=
EXTT5=
EXTT6=
EXTT7=
EXTT8=
EXTT9=
EXTT10=
PLAYORDER=
